<svg width="222" height="67" viewBox="0 0 222 67" fill="none" xmlns="http://www.w3.org/2000/svg">
<path d="M27.0136 20.361C27.8656 20.8649 28.8253 21.2242 29.8317 21.2724C33.4081 21.4433 36.4556 18.341 36.8441 15.0328C37.2046 10.7606 33.9418 6.78636 30.019 4.88029C23.2359 1.59398 13.7659 2.29067 7.49783 6.2956C3.86056 8.61793 1.54338 12.1452 1.71658 16.3167C1.8851 20.3698 3.8512 23.9409 6.96418 26.697C10.3299 29.6766 14.6226 31.3855 18.5875 33.5282C21.649 35.1845 24.7854 37.2921 24.9586 40.9378C25.1178 44.2591 22.9457 47.5761 19.2382 48.0406C16.8415 48.3385 13.4944 47.6112 11.973 45.6744C10.2504 43.4836 11.842 40.4076 12.296 38.0896C13.148 33.7473 8.69621 30.0403 4.26782 31.9201C1.30932 33.0769 -0.0669462 35.8812 0.0173149 38.725C0.0313584 39.2595 0.143707 39.7897 0.321591 40.298C6.0888 56.6639 43.5054 50.8493 33.4643 30.3164C31.3812 25.3913 25.6093 22.8104 20.8626 20.602C16.3967 18.5251 8.48556 16.0976 10.9244 9.98504C11.8607 7.6408 14.0515 5.6953 16.7197 5.23083C20.0059 4.65682 23.2313 6.60232 24.4296 9.48552C25.6655 12.4607 23.4747 15.5762 25.1084 18.4769C25.5484 19.2568 26.2178 19.8922 27.0136 20.361Z" fill="#F8EEEC"/>
<path d="M54.2195 31.9775C51.2844 24.7695 51.2376 13.2061 56.752 7.04095C59.6964 3.6188 66.3063 4.13585 67.6544 8.53513C68.2443 10.3886 67.4766 12.0581 66.7697 13.7363C65.8335 15.9491 66.0113 18.4949 67.4485 20.4579C71.2309 25.6108 79.5353 21.86 79.5353 15.3137C79.5353 13.2587 78.7161 10.9232 76.6797 8.50884C67.2238 -0.995184 48.5506 3.64071 42.8161 14.7485C40.1572 19.8926 39.1227 25.2953 40.0683 30.9916C40.9764 36.3943 43.5745 41.74 48.0263 45.3813C53.2739 49.6579 60.5671 50.5912 67.1957 48.9656C71.9939 47.7956 76.3567 45.1753 79.5353 41.6086V39.1855C71.4977 45.5303 57.8567 42.6996 54.2242 31.9775H54.2195Z" fill="#F8EEEC"/>
<path d="M104.794 3.50657C77.1051 2.82302 77.1051 50.3519 104.794 49.6771C132.38 50.3212 132.38 2.85369 104.794 3.50657ZM100.469 47.4906C99.0785 47.9069 97.5056 47.4731 96.5694 46.4302C89.6646 38.7578 98.807 8.66828 109.049 5.61419C110.44 5.19793 112.003 5.60543 112.949 6.63952C119.9 14.2287 110.655 44.4847 100.469 47.4906Z" fill="#F8EEEC"/>
<path d="M150.765 3.50657C123.076 2.82302 123.076 50.3519 150.765 49.6771C178.351 50.3212 178.351 2.85369 150.765 3.50657ZM146.444 47.4906C145.054 47.9069 143.49 47.4731 142.545 46.4302C135.64 38.7578 144.782 8.66828 155.025 5.61419C156.415 5.19793 157.979 5.60543 158.934 6.63952C165.876 14.2287 156.64 44.4847 146.444 47.4906Z" fill="#F8EEEC"/>
<path d="M221.211 25.8917C221.366 20.9447 220.528 15.7874 217.963 11.5196C217.696 11.077 217.41 10.6388 217.111 10.2138C215.968 8.60571 214.564 7.23422 212.986 5.9898C208.291 2.27845 200.694 1.5467 194.669 6.36663C193.616 7.20355 190.199 9.91585 190.199 11.2698C190.189 10.3496 190.11 0.398682 190.11 0.398682H189.272C186.594 5.16603 176.754 3.31255 171.455 3.67185V4.53944C176.408 5.27557 178.065 7.6943 178.262 12.4573V58.8031C178.102 62.6196 175.673 65.7745 171.455 65.7V66.5588H197.173V65.7C189.45 65.4896 190.231 60.8406 190.208 53.7422C190.198 49.5488 190.208 45.0225 190.208 45.0225C190.208 45.0225 190.896 45.5658 191.172 45.8156C197.525 51.5863 207.364 50.1754 213.403 44.7815C217.944 40.7327 220.261 35.0364 220.949 29.2876C221.085 28.1746 221.174 27.0354 221.207 25.883L221.211 25.8917ZM196.907 44.8209C195.399 45.1364 193.658 44.6632 192.572 43.651C184.586 36.2195 192.895 8.8467 203.938 6.52437C205.436 6.20889 207.177 6.66459 208.273 7.66801C216.301 15.025 207.889 42.5468 196.907 44.8209Z" fill="#F8EEEC"/>
</svg>
